<?xml version="1.0" encoding="UTF-8"?>
<svg id="Capa_1" data-name="Capa 1" xmlns="http://www.w3.org/2000/svg" viewBox="0 0 666.67 666.66">
  <defs>
    <style>
      .cls-1 {
        opacity: .7;
      }

      .cls-1, .cls-2 {
        fill: #1c274c;
        isolation: isolate;
      }

      .cls-2 {
        opacity: .4;
      }

      .cls-3 {
        fill: #ffc200;
        fill-rule: evenodd;
      }
    </style>
  </defs>
  <path class="cls-3" d="m444.25,184.73h-221.84c-112.49,0-168.74,0-200.34,32.89-31.59,32.89-24.16,83.72-9.29,185.36l14.1,96.39c11.66,79.71,17.49,119.56,47.4,143.43,29.91,23.87,74.02,23.87,162.23,23.87h193.64c88.22,0,132.33,0,162.24-23.87,29.91-23.87,35.73-63.72,47.39-143.43l14.1-96.39c14.87-101.64,22.3-152.46-9.29-185.36-31.6-32.89-87.84-32.89-200.34-32.89Zm-24.64,87.43c-41.05-17.54-88.19,8.85-90.93,50.91-.12,1.84-.12,4.13-.12,6.9v.9c0,.99,0,1.87.02,2.72v117.14c-12.62-6.81-27.26-10.71-42.88-10.71-47.33,0-85.71,35.81-85.71,79.99s38.38,79.99,85.71,79.99,85.71-35.81,85.72-79.99v-130.63s30.95,15.39,30.95,15.39c2.61,1.3,4.79,2.38,6.58,3.15,41.06,17.54,88.19-8.85,90.93-50.91.12-1.84.12-4.13.12-6.9v-.89c0-1.13,0-2.12-.03-3.08-.71-20.78-12.9-39.74-32.21-50.1-.9-.48-1.83-.94-2.9-1.48l-38.66-19.24c-2.61-1.3-4.78-2.38-6.58-3.15Z"/>
  <path d="m401.78,308.54c-13.69-5.85-29.4,2.95-30.31,16.97-.03.44-.04,1.35-.04,5.13,0,1.5,0,1.81,0,2.05.24,6.92,4.3,13.24,10.74,16.7.22.12.51.27,1.93.97l37.81,18.82c3.58,1.78,4.44,2.2,4.87,2.38,13.69,5.85,29.4-2.95,30.31-16.97.03-.44.04-1.35.04-5.13,0-1.5,0-1.8-.01-2.05-.24-6.92-4.3-13.24-10.74-16.7l-44.62-22.17Z"/>
  <path d="m285.71,480.02c23.67,0,42.86,17.91,42.86,39.99s-19.18,39.99-42.86,39.99-42.86-17.91-42.86-39.99,19.19-39.99,42.86-39.99Z"/>
  <path class="cls-2" d="m217,0h232.67c7.75,0,13.69,0,18.89.5,36.93,3.61,67.15,25.81,79.97,55.72H118.15C130.97,26.32,161.19,4.12,198.12.5,203.31,0,209.25,0,217,0Z"/>
  <path class="cls-1" d="m143.69,90.76c-46.35,0-84.36,27.99-97.05,65.13-.26.77-.52,1.55-.76,2.33,13.27-4.02,27.08-6.64,41.07-8.44,36.01-4.62,81.52-4.61,134.39-4.61h229.74c52.87,0,98.38,0,134.39,4.61,13.98,1.79,27.8,4.42,41.07,8.44-.24-.78-.5-1.56-.76-2.33-12.68-37.13-50.69-65.13-97.05-65.13H143.69Z"/>
</svg>